arm26_optimize_states
version=1
nRows=33
nColumns=21
inDegrees=yes

# SIMM Motion File Header:
name arm26_optimize_states
datacolumns 21
datarows 33
otherdata 1
range 0.00000000 0.12637381
endheader
time	r_shoulder_elev	r_elbow_flex	r_shoulder_elev_u	r_elbow_flex_u	TRIlong.activation	TRIlong.fiber_length	TRIlat.activation	TRIlat.fiber_length	TRImed.activation	TRImed.fiber_length	BIClong.activation	BIClong.fiber_length	BICshort.activation	BICshort.fiber_length	BRA.activation	BRA.fiber_length	DeltAnt.activation	DeltAnt.fiber_length	DeltPost.activation	DeltPost.fiber_length
      0.00000000	      0.00000000	      0.00000000	      0.00000000	      0.00000000	      0.05000000	      0.13617455	      0.05000000	      0.07016733	      0.05000000	      0.06525919	      0.05000000	      0.14501494	      0.05000000	      0.14730033	      0.05000000	      0.08667699	      0.05000000	      0.18049834	      0.05000000	      0.10858742
      0.00231346	      0.00214147	     -0.00629908	      1.84035870	     -5.41940425	      0.04869384	      0.13617583	      0.04869384	      0.07016830	      0.04869384	      0.06526013	      0.04869384	      0.14501610	      0.04869384	      0.14730168	      0.04869384	      0.08667779	      0.04869384	      0.18049945	      0.04869384	      0.10858863
      0.00571057	      0.01269786	     -0.03753719	      4.31481980	    -12.82587851	      0.04686016	      0.13618164	      0.04686016	      0.07017150	      0.04686016	      0.06526306	      0.04686016	      0.14502185	      0.04686016	      0.14730856	      0.04686016	      0.08668118	      0.04686016	      0.18050163	      0.04686016	      0.10859565
      0.00828395	      0.02591931	     -0.07703819	      5.91924220	    -17.77005992	      0.04553458	      0.13618825	      0.04553458	      0.07017367	      0.04553458	      0.06526473	      0.04553458	      0.14502914	      0.04553458	      0.14731758	      0.04553458	      0.08668482	      0.04553458	      0.18050137	      0.04553458	      0.10860582
      0.01155140	      0.04813007	     -0.14419036	      7.61650976	    -23.17836139	      0.04392605	      0.13619825	      0.04392605	      0.07017447	      0.04392605	      0.06526429	      0.04392605	      0.14504159	      0.04392605	      0.14733351	      0.04392605	      0.08669002	      0.04392605	      0.18049670	      0.04392605	      0.10862506
      0.01481886	      0.07534304	     -0.22757291	      8.99373993	    -27.73173722	      0.04239656	      0.13620902	      0.04239656	      0.07017053	      0.04239656	      0.06525803	      0.04239656	      0.14505705	      0.04239656	      0.14735399	      0.04239656	      0.08669531	      0.04239656	      0.18048822	      0.04239656	      0.10865084
      0.01887658	      0.11473938	     -0.34997887	     10.37275927	    -32.44994368	      0.04060054	      0.13622221	      0.04060054	      0.07015764	      0.04060054	      0.06524222	      0.04060054	      0.14507951	      0.04060054	      0.14738485	      0.04060054	      0.08670145	      0.04060054	      0.18047356	      0.04060054	      0.10869032
      0.02293430	      0.15917629	     -0.48986395	     11.49468270	    -36.38613858	      0.03891174	      0.13623425	      0.03891174	      0.07013668	      0.03891174	      0.06521848	      0.03891174	      0.14510455	      0.03891174	      0.14742047	      0.03891174	      0.08670680	      0.03891174	      0.18045520	      0.03891174	      0.10873602
      0.02699203	      0.20778662	     -0.64447884	     12.44043783	    -39.73666649	      0.03732296	      0.13624455	      0.03732296	      0.07010872	      0.03732296	      0.06518795	      0.03732296	      0.14513123	      0.03732296	      0.14745960	      0.03732296	      0.08671117	      0.03732296	      0.18043379	      0.03732296	      0.10878628
      0.03190571	      0.27138901	     -0.84846790	     13.42271305	    -43.19660687	      0.03552343	      0.13625432	      0.03552343	      0.07006694	      0.03552343	      0.06514337	      0.03552343	      0.14516470	      0.03552343	      0.14751011	      0.03552343	      0.08671508	      0.03552343	      0.18040441	      0.03552343	      0.10885175
      0.03681940	      0.33949165	     -1.06815481	     14.27969087	    -46.14731926	      0.03385005	      0.13626102	      0.03385005	      0.07001791	      0.03385005	      0.06509186	      0.03385005	      0.14519857	      0.03385005	      0.14756267	      0.03385005	      0.08671748	      0.03385005	      0.18037176	      0.03385005	      0.10892124
      0.04173308	      0.41157472	     -1.30131363	     15.04762777	    -48.69456338	      0.03229301	      0.13626477	      0.03229301	      0.06996286	      0.03229301	      0.06503461	      0.03229301	      0.14523220	      0.03229301	      0.14761618	      0.03229301	      0.08671837	      0.03229301	      0.18033619	      0.03229301	      0.10899404
      0.04777711	      0.50515471	     -1.60397479	     15.90566621	    -51.38594504	      0.03052424	      0.13626549	      0.03052424	      0.06988832	      0.03052424	      0.06495769	      0.03052424	      0.14527259	      0.03052424	      0.14768226	      0.03052424	      0.08671688	      0.03052424	      0.18028885	      0.03052424	      0.10908748
      0.05382115	      0.60370486	     -1.92168562	     16.69669454	    -53.69112154	      0.02890307	      0.13626086	      0.02890307	      0.06980759	      0.02890307	      0.06487488	      0.02890307	      0.14531141	      0.02890307	      0.14774778	      0.02890307	      0.08671254	      0.02890307	      0.18023794	      0.02890307	      0.10918473
      0.05864759	      0.68573988	     -2.18479520	     17.29263066	    -55.30676466	      0.02770544	      0.13625417	      0.02770544	      0.06973946	      0.02770544	      0.06480527	      0.02770544	      0.14534103	      0.02770544	      0.14779930	      0.02770544	      0.08670746	      0.02770544	      0.18019474	      0.02770544	      0.10926488
      0.06289026	      0.76018281	     -2.42220685	     17.79723051	    -56.58948076	      0.02671840	      0.13624683	      0.02671840	      0.06967730	      0.02671840	      0.06474192	      0.02671840	      0.14536595	      0.02671840	      0.14784382	      0.02671840	      0.08670191	      0.02671840	      0.18015523	      0.02671840	      0.10933702
      0.06713293	      0.83673024	     -2.66480703	     18.28457416	    -57.75363682	      0.02578880	      0.13623851	      0.02578880	      0.06961330	      0.02578880	      0.06467684	      0.02578880	      0.14538975	      0.02578880	      0.14788750	      0.02578880	      0.08669536	      0.02578880	      0.18011404	      0.02578880	      0.10941065
      0.07137561	      0.91531441	     -2.91211942	     18.75799732	    -58.81325948	      0.02491302	      0.13622952	      0.02491302	      0.06954773	      0.02491302	      0.06461027	      0.02491302	      0.14541237	      0.02491302	      0.14793028	      0.02491302	      0.08668786	      0.02491302	      0.18007152	      0.02491302	      0.10948572
      0.07561828	      0.99587704	     -3.16371529	     19.21684107	    -59.77301617	      0.02408772	      0.13622011	      0.02408772	      0.06948082	      0.02408772	      0.06454245	      0.02408772	      0.14543376	      0.02408772	      0.14797208	      0.02408772	      0.08667941	      0.02408772	      0.18002741	      0.02408772	      0.10956217
      0.07986095	      1.07835889	     -3.41918819	     19.66340697	    -60.64322085	      0.02330980	      0.13621046	      0.02330980	      0.06941278	      0.02330980	      0.06447358	      0.02330980	      0.14545389	      0.02330980	      0.14801285	      0.02330980	      0.08667002	      0.02330980	      0.17998212	      0.02330980	      0.10963996
      0.08367080	      1.15401801	     -3.65159637	     20.05214408	    -61.34850686	      0.02264921	      0.13620177	      0.02264921	      0.06935089	      0.02264921	      0.06441101	      0.02264921	      0.14547087	      0.02264921	      0.14804855	      0.02264921	      0.08666082	      0.02264921	      0.17994008	      0.02264921	      0.10971090
      0.08748066	      1.23113887	     -3.88656573	     20.43121561	    -61.98922817	      0.02202251	      0.13619317	      0.02202251	      0.06928839	      0.02202251	      0.06434788	      0.02202251	      0.14548678	      0.02202251	      0.14808337	      0.02202251	      0.08665090	      0.02202251	      0.17989721	      0.02202251	      0.10978284
      0.09129052	      1.30968232	     -4.12385105	     20.79837480	    -62.56355913	      0.02142786	      0.13618477	      0.02142786	      0.06922542	      0.02142786	      0.06428434	      0.02142786	      0.14550162	      0.02142786	      0.14811727	      0.02142786	      0.08664027	      0.02142786	      0.17985311	      0.02142786	      0.10985574
      0.09510037	      1.38960379	     -4.36320643	     21.15509981	    -63.07737815	      0.02086352	      0.13617669	      0.02086352	      0.06916210	      0.02086352	      0.06422050	      0.02086352	      0.14551536	      0.02086352	      0.14815024	      0.02086352	      0.08662894	      0.02086352	      0.17980824	      0.02086352	      0.10992957
      0.09891023	      1.47086118	     -4.60440118	     21.49887447	    -63.52785481	      0.02032786	      0.13616902	      0.02032786	      0.06909855	      0.02032786	      0.06415648	      0.02032786	      0.14552801	      0.02032786	      0.14818227	      0.02032786	      0.08661693	      0.02032786	      0.17976215	      0.02032786	      0.11000429
      0.10272009	      1.55340567	     -4.84719960	     21.83165140	    -63.92148822	      0.01981934	      0.13616185	      0.01981934	      0.06903490	      0.01981934	      0.06409240	      0.01981934	      0.14553954	      0.01981934	      0.14821334	      0.01981934	      0.08660426	      0.01981934	      0.17971548	      0.01981934	      0.11007986
      0.10579364	      1.62090477	     -5.04409338	     22.08929443	    -64.19314149	      0.01942790	      0.13615651	      0.01942790	      0.06898354	      0.01942790	      0.06404073	      0.01942790	      0.14554804	      0.01942790	      0.14823771	      0.01942790	      0.08659356	      0.01942790	      0.17967684	      0.01942790	      0.11014141
      0.10886719	      1.68918341	     -5.24176594	     22.33905163	    -64.42873534	      0.01905246	      0.13615159	      0.01905246	      0.06893225	      0.01905246	      0.06398915	      0.01905246	      0.14555581	      0.01905246	      0.14826146	      0.01905246	      0.08658245	      0.01905246	      0.17963788	      0.01905246	      0.11020347
      0.11308204	      1.78403463	     -5.51389763	     22.66573787	    -64.68864492	      0.01856238	      0.13614562	      0.01856238	      0.06886210	      0.01856238	      0.06391865	      0.01856238	      0.14556528	      0.01856238	      0.14829299	      0.01856238	      0.08656656	      0.01856238	      0.17958338	      0.01856238	      0.11028935
      0.11640498	      1.85976239	     -5.72912610	     22.91133134	    -64.84548750	      0.01819522	      0.13614162	      0.01819522	      0.06880705	      0.01819522	      0.06386336	      0.01819522	      0.14557178	      0.01819522	      0.14831701	      0.01819522	      0.08655351	      0.01819522	      0.17953994	      0.01819522	      0.11035766
      0.11972792	      1.93628582	     -5.94480090	     23.14397022	    -64.95603130	      0.01784416	      0.13613827	      0.01784416	      0.06875229	      0.01784416	      0.06380838	      0.01784416	      0.14557744	      0.01784416	      0.14834029	      0.01784416	      0.08654001	      0.01784416	      0.17949563	      0.01784416	      0.11042645
      0.12305086	      2.01356268	     -6.16077160	     23.36534271	    -65.02491390	      0.01750846	      0.13613563	      0.01750846	      0.06869788	      0.01750846	      0.06375378	      0.01750846	      0.14558225	      0.01750846	      0.14836283	      0.01750846	      0.08652609	      0.01750846	      0.17945107	      0.01750846	      0.11049572
      0.12637381	      2.09155317	     -6.37689643	     23.57266716	    -65.04720636	      0.01718742	      0.13613374	      0.01718742	      0.06864389	      0.01718742	      0.06369962	      0.01718742	      0.14558623	      0.01718742	      0.14838464	      0.01718742	      0.08651175	      0.01718742	      0.17940565	      0.01718742	      0.11056540
